<svg width="22" height="21" viewBox="0 0 22 21" fill="none" xmlns="http://www.w3.org/2000/svg">
<g id="5335781_camera_instagram_social media_instagram logo_icon 1">
<g id="Group">
<path id="Vector" d="M10.9999 1.54004C8.45066 1.54004 8.131 1.55035 7.12982 1.59396C6.13072 1.63749 5.44837 1.78893 4.85128 2.01044C4.23402 2.23942 3.71055 2.54579 3.18872 3.0439C2.66689 3.54201 2.34593 4.04169 2.10605 4.63089C1.87399 5.20081 1.71534 5.85214 1.66973 6.80582C1.62405 7.7615 1.61328 8.06663 1.61328 10.5C1.61328 12.9334 1.62405 13.2385 1.66973 14.1942C1.71534 15.1479 1.87399 15.7992 2.10605 16.3691C2.34593 16.9583 2.66689 17.458 3.18872 17.9561C3.71055 18.4543 4.23402 18.7606 4.85128 18.9896C5.44837 19.2111 6.13072 19.3626 7.12982 19.4061C8.131 19.4497 8.45066 19.46 10.9999 19.46C13.5492 19.46 13.8688 19.4497 14.87 19.4061C15.8691 19.3626 16.5515 19.2111 17.1485 18.9896C17.7658 18.7606 18.2892 18.4543 18.8111 17.9561C19.3329 17.458 19.6539 16.9583 19.8938 16.3691C20.1258 15.7992 20.2845 15.1479 20.3301 14.1942C20.3757 13.2385 20.3865 12.9334 20.3865 10.5C20.3865 8.06663 20.3757 7.7615 20.3301 6.80582C20.2845 5.85214 20.1258 5.20081 19.8938 4.63089C19.6539 4.04169 19.3329 3.54201 18.8111 3.0439C18.2892 2.54579 17.7658 2.23942 17.1485 2.01044C16.5515 1.78893 15.8691 1.63749 14.87 1.59396C13.8688 1.55035 13.5492 1.54004 10.9999 1.54004ZM10.9999 3.15448C13.5062 3.15448 13.8031 3.16359 14.7929 3.20669C15.7081 3.24656 16.2051 3.39253 16.5359 3.5152C16.974 3.67774 17.2867 3.87193 17.6152 4.18545C17.9437 4.49897 18.1471 4.79748 18.3173 5.21567C18.4459 5.5314 18.5988 6.00582 18.6405 6.87941C18.6857 7.8242 18.6953 8.1076 18.6953 10.5C18.6953 12.8924 18.6857 13.1758 18.6405 14.1206C18.5988 14.9942 18.4459 15.4686 18.3173 15.7843C18.1471 16.2026 17.9437 16.501 17.6152 16.8146C17.2867 17.1281 16.974 17.3223 16.5359 17.4848C16.2051 17.6075 15.7081 17.7535 14.7929 17.7933C13.8033 17.8364 13.5064 17.8456 10.9999 17.8456C8.4934 17.8456 8.19658 17.8364 7.20691 17.7933C6.29172 17.7535 5.79471 17.6075 5.46395 17.4848C5.0258 17.3223 4.71311 17.1281 4.38463 16.8146C4.05618 16.501 3.85274 16.2026 3.68249 15.7843C3.55395 15.4686 3.40103 14.9942 3.35926 14.1206C3.3141 13.1758 3.30456 12.8924 3.30456 10.5C3.30456 8.1076 3.3141 7.8242 3.35926 6.87941C3.40103 6.00582 3.55395 5.5314 3.68249 5.21567C3.85274 4.79748 4.05618 4.49897 4.38463 4.18545C4.71311 3.87193 5.0258 3.67774 5.46395 3.5152C5.79471 3.39253 6.29172 3.24656 7.20691 3.20669C8.19669 3.16359 8.49358 3.15448 10.9999 3.15448Z" fill="#34345A"/>
<path id="Vector_2" d="M10.9999 13.4866C9.27181 13.4866 7.87097 12.1495 7.87097 10.5C7.87097 8.8505 9.27181 7.51333 10.9999 7.51333C12.7279 7.51333 14.1287 8.8505 14.1287 10.5C14.1287 12.1495 12.7279 13.4866 10.9999 13.4866ZM10.9999 5.89893C8.33773 5.89893 6.17969 7.95888 6.17969 10.5C6.17969 13.0411 8.33773 15.101 10.9999 15.101C13.662 15.101 15.82 13.0411 15.82 10.5C15.82 7.95888 13.662 5.89893 10.9999 5.89893Z" fill="#34345A"/>
<path id="Vector_3" d="M17.1366 5.71727C17.1366 6.31109 16.6323 6.79245 16.0102 6.79245C15.3881 6.79245 14.8838 6.31109 14.8838 5.71727C14.8838 5.12345 15.3881 4.64209 16.0102 4.64209C16.6323 4.64209 17.1366 5.12345 17.1366 5.71727Z" fill="#34345A"/>
</g>
</g>
</svg>
