<svg width="56" height="62" viewBox="0 0 56 62" fill="none" xmlns="http://www.w3.org/2000/svg">
<path d="M23.8672 0.128662C15.8407 1.09602 8.99077 5.90667 5.26077 13.1924C3.96224 15.7371 3.0646 18.6392 2.64628 21.6894C2.51556 22.6481 2.35869 26.7441 2.45455 26.657C2.4807 26.6308 2.5417 26.2038 2.60271 25.6983C2.88159 23.0403 3.45677 20.6785 4.4067 18.247C7.07348 11.4581 12.1892 6.12455 18.4465 3.61464C19.9716 3.00459 21.6187 2.56013 23.4314 2.28125C24.8258 2.07209 27.9545 2.07209 29.4012 2.28125C34.8306 3.08303 39.6761 5.46221 42.247 8.58216L42.8658 9.32293L42.0901 10.3426C41.6631 10.9003 41.2187 11.4494 41.1054 11.554L40.9049 11.7457V10.6825C40.9049 10.0986 40.8526 9.38394 40.7829 9.09634L40.6696 8.57345L40.2339 9.04406C39.1619 10.2119 38.944 11.5365 39.6935 12.3644L39.9811 12.6782L39.3972 13.3057L38.8133 13.9331L36.591 14.4996C35.3709 14.8134 34.3077 15.0922 34.238 15.1097C34.1683 15.1358 34.2293 15.0661 34.3687 14.9615C34.6127 14.7872 34.8567 14.5432 35.8677 13.48C36.225 13.1052 36.4429 12.7218 37.5584 10.5779C37.7762 10.1596 37.8983 10.0201 38.1684 9.90683C38.4386 9.79354 38.5519 9.67153 38.6913 9.34908C39.0312 8.58216 38.8133 7.89368 37.9505 7.04833L37.4189 6.51672L37.2969 6.80431C37.2359 6.96118 37.1575 7.46665 37.1401 7.93726C37.0878 8.73903 37.0965 8.80004 37.3666 9.35779L37.6368 9.95041L37.1313 10.848L36.6259 11.7544L36.469 11.2751C36.3209 10.787 35.6585 9.73254 35.5016 9.71511C35.4581 9.71511 35.3186 9.96784 35.2053 10.2729C34.9003 11.0746 34.8916 12.3993 35.1792 12.9832C35.2838 13.2011 35.3709 13.419 35.3709 13.4625C35.3709 13.6194 34.116 14.8046 33.9417 14.8046C33.9155 14.8046 33.8894 14.7523 33.8894 14.6913C33.8894 14.2817 33.6541 13.846 33.1225 13.3057C32.8087 12.9832 32.5211 12.713 32.4863 12.713C32.373 12.713 32.1638 13.1749 32.0592 13.6194C31.8937 14.3602 32.2335 15.1009 32.8523 15.3624C33.0876 15.4583 33.0527 15.4844 31.9459 15.9202C31.3098 16.1729 30.7694 16.3733 30.7346 16.3733C30.7084 16.3733 30.6997 16.3036 30.7171 16.2165C30.7346 16.138 30.7869 15.3537 30.8304 14.4822L30.9176 12.8961L31.2226 12.4516C31.6409 11.8416 31.7194 11.5452 31.7716 10.238L31.8239 9.11377L31.5276 9.27936C31.1006 9.52338 30.3773 10.2641 30.1855 10.665C29.8108 11.4494 29.9328 12.408 30.4644 12.8525C30.6823 13.0355 30.6823 13.0442 30.6213 14.0639L30.5516 15.0922L30.3947 14.7611C30.1594 14.2817 30.0025 14.1336 29.5406 13.968C29.3227 13.8896 28.9393 13.7327 28.6866 13.6194C28.1811 13.4015 28.1375 13.4364 28.1375 13.968C28.1375 14.578 28.5297 15.284 29.0439 15.5977C29.3402 15.7807 29.9676 15.8156 30.2465 15.6674C30.3424 15.6151 30.4295 15.589 30.447 15.6064C30.4644 15.6238 30.4295 15.8591 30.3773 16.1293C30.2727 16.6261 30.264 16.6348 29.6191 17.0618C29.2617 17.2971 28.6691 17.7677 28.3031 18.1076L27.6408 18.7177L27.1004 17.1315C26.778 16.1816 26.5601 15.4147 26.5601 15.2142C26.5775 14.7349 26.9523 13.6107 27.266 13.1139C27.5536 12.6608 27.5536 12.4952 27.2573 12.7653C26.9871 13.0094 26.6647 13.602 26.4381 14.2556L26.2464 14.8308L26.0111 14.4037C25.2703 13.0878 25.3487 12.6433 26.5862 11.2315C27.3967 10.3077 27.3967 10.3077 27.8935 10.238C28.4338 10.1596 28.9393 9.78482 29.192 9.25321C29.3663 8.90461 29.4012 8.70417 29.4012 8.03312C29.4012 7.56251 29.3576 7.18777 29.3053 7.13548C29.2356 7.06576 28.9654 7.27492 28.3292 7.89368C27.571 8.62574 27.4316 8.80875 27.3357 9.15735C27.2747 9.39265 27.205 9.57566 27.1702 9.57566C26.7344 9.57566 26.9087 7.52765 27.449 6.20298C27.5798 5.88053 27.4926 5.72366 27.3183 5.96768C27.144 6.20298 26.7693 7.34464 26.656 7.95469C26.6124 8.24228 26.5514 8.4863 26.534 8.50373C26.5165 8.52116 26.3597 8.04184 26.1854 7.4405C25.9239 6.54286 25.6712 5.8631 25.462 5.47092C25.4446 5.43607 25.5492 5.36634 25.6973 5.30534C26.3509 5.03518 26.5427 4.18983 26.1069 3.45777C25.9762 3.2399 25.7496 2.97845 25.5927 2.88258L25.3139 2.69957L24.974 3.4142C24.608 4.19854 24.5818 4.54714 24.8781 5.00903C25.1047 5.34892 25.6102 6.78688 25.6102 7.08319C25.6102 7.13548 25.4272 6.99604 25.2006 6.77817C24.1112 5.74109 22.4902 4.55585 22.3508 4.69529C22.2811 4.76501 22.2898 4.8173 22.3856 4.86959C22.4815 4.9306 22.4554 4.95674 22.2636 4.95674C21.9848 4.95674 20.3812 5.65394 20.3812 5.77595C20.3812 5.81952 20.5294 5.99382 20.7124 6.16812C21.5664 6.97861 23.0044 6.80431 23.3007 5.84567C23.3356 5.73237 23.3966 5.65394 23.4314 5.67137C23.6057 5.73237 25.0437 7.0309 25.3923 7.43179C25.6712 7.75424 25.8106 8.02441 25.9152 8.43401C26.0808 9.08763 26.3335 9.61924 26.6124 9.92426L26.8128 10.1421L26.0285 10.9613C25.3574 11.6585 25.2267 11.7631 25.157 11.6324C25.1134 11.554 24.8868 11.2402 24.669 10.9439C24.4424 10.6476 24.1461 10.2206 24.0153 9.99398C23.719 9.4798 23.3617 9.27936 22.7604 9.28807C22.3159 9.28807 21.3398 9.66282 21.3398 9.83712C21.3398 9.94169 22.2026 10.6912 22.5164 10.8568C22.8911 11.0572 23.4314 11.0398 23.8062 10.8045L24.1199 10.6127L24.5557 11.3361C24.7997 11.7283 25.0001 12.0943 25.0001 12.1466C25.0001 12.1989 24.9391 12.4342 24.8607 12.6695C24.6777 13.2011 24.7648 13.6368 25.3052 14.8046C25.6712 15.6151 26.2638 17.4104 26.1854 17.4888C26.1592 17.5063 25.9762 17.4104 25.767 17.271C25.5579 17.1315 25.0786 16.8439 24.6864 16.6348L23.9805 16.26L24.0241 15.6848C24.0589 15.1881 24.0328 15.0748 23.8672 14.8656C23.5622 14.4822 22.6297 13.7414 22.5599 13.8198C22.4292 13.9593 22.2811 14.578 22.2811 14.9702C22.2811 15.772 22.7517 16.3733 23.3879 16.3733C23.8846 16.3733 26.3161 17.8897 26.4294 18.2732C26.4555 18.3516 26.5601 18.8571 26.656 19.3974C26.8128 20.2079 26.8303 20.5129 26.7693 21.1753L26.6995 21.9683L26.1331 20.94C25.1396 19.1185 24.6428 18.7787 22.8388 18.6654C21.8017 18.6044 21.8453 18.6305 21.3224 17.5063C21.1568 17.149 20.7995 16.5041 20.5294 16.0683C20.2505 15.6413 19.9803 15.1619 19.928 15.0051C19.867 14.8482 19.7712 14.7175 19.7102 14.7175C19.5707 14.7175 19.5707 14.7088 19.7276 15.1532C19.8409 15.467 20.1633 16.0596 20.6165 16.7742L20.7298 16.9572L20.2766 16.8004C19.7886 16.6348 18.2025 16.5651 18.2025 16.7132C18.2025 16.8701 18.9258 17.8723 19.196 18.0727C19.8322 18.5608 20.3899 18.6566 20.9302 18.3865C21.2527 18.2209 21.2527 18.2209 21.3486 18.3952C21.4009 18.4911 21.427 18.5782 21.4096 18.5869C21.3921 18.6044 20.7821 18.6392 20.0588 18.6741C18.8212 18.7264 18.7254 18.7177 18.7254 18.5782C18.7254 18.3952 18.4378 17.881 17.6534 16.6435C17.3397 16.138 17.0957 15.7023 17.1218 15.6587C17.148 15.6238 17.2438 15.589 17.331 15.589C17.575 15.589 18.0369 15.1619 18.2112 14.7611C18.4552 14.2382 18.4203 13.5323 18.124 12.6433C17.9846 12.225 17.8452 11.7718 17.8103 11.6237L17.7493 11.3622L17.4617 11.676C17.3048 11.8503 17.0957 12.2163 16.9824 12.5039C16.7558 13.1052 16.6599 14.3079 16.7994 14.8918C16.8429 15.1009 16.8691 15.2927 16.8604 15.3101C16.8429 15.3275 16.6163 14.9092 16.3549 14.395L15.8756 13.4538L16.1719 12.9048C16.3636 12.53 16.4595 12.2337 16.4595 11.9897C16.4595 11.5975 16.1806 10.2206 16.076 10.1247C15.9889 10.0288 15.5793 10.3774 15.222 10.848C14.7688 11.4407 14.6381 12.042 14.8385 12.5823C14.9344 12.8089 15.1174 13.0704 15.2917 13.2011C15.4921 13.358 15.71 13.6978 16.0063 14.3079C16.2416 14.7959 16.7384 15.7284 17.1131 16.3733C18.2112 18.2732 18.2896 18.4126 18.2896 18.5434C18.2896 18.7525 17.3571 18.5869 16.6774 18.247C16.1632 17.9943 13.662 16.3123 13.3831 16.0334C13.3308 15.9812 13.3918 15.9027 13.5661 15.8156C14.4115 15.3798 14.6816 14.1423 14.1674 13.0355C13.9583 12.591 13.2959 11.7544 13.2088 11.8416C13.1217 11.92 12.7731 13.968 12.7208 14.6739L12.6685 15.3711L12.3722 14.7611C12.2066 14.4299 11.98 13.8983 11.8754 13.5845C11.6924 13.0704 11.492 12.8002 11.492 13.0791C11.492 13.2359 11.7795 14.1336 12.0061 14.7001C12.2066 15.2142 12.2327 15.2142 11.431 14.6391L10.9081 14.2643L10.8558 13.6543C10.8209 13.3057 10.725 12.8786 10.6117 12.652C10.3939 12.1989 9.01691 10.7173 8.91233 10.8219C8.86876 10.8655 8.82518 11.2925 8.80775 11.7893C8.77289 12.5562 8.79904 12.7392 8.96462 13.1227C9.19993 13.6717 9.61824 14.09 10.0889 14.2295C10.3329 14.2992 11.1346 14.8744 12.59 16.0247L14.7252 17.7154L13.8276 17.9159C12.3983 18.2209 12.2589 18.2035 11.6575 17.6457C11.3787 17.3843 10.9429 17.0792 10.6902 16.9572C10.0017 16.6261 7.74453 15.9376 7.74453 16.0596C7.74453 16.2862 8.32843 17.1402 8.84261 17.6719C9.14764 17.9856 9.40037 18.2645 9.40037 18.2993C9.40037 18.3342 9.50495 18.3778 9.64439 18.4039C9.77511 18.4301 10.0366 18.5085 10.2283 18.5869C10.664 18.7525 11.4745 18.7612 11.9016 18.6044C12.3983 18.4301 14.7601 18.0902 15.0825 18.1512C15.2307 18.1773 15.6141 18.3778 15.9279 18.5956C16.8517 19.2144 18.185 19.502 20.1198 19.5107H20.9477L20.7298 19.685C20.2156 20.0772 18.7079 20.9312 18.0979 21.1666C17.7406 21.306 17.0957 21.4803 16.6686 21.5587C16.2416 21.6372 15.4921 21.7853 14.9954 21.8725L14.0977 22.0468L13.7404 21.733C13.3047 21.3321 12.9038 21.1666 12.3809 21.1404C11.7883 21.123 10.0976 21.3583 10.0976 21.4629C10.0976 21.5064 10.3067 21.7505 10.5595 22.0032C11.4222 22.8311 12.6772 23.0664 13.4615 22.5522C13.6968 22.3954 14.0716 22.2821 14.6729 22.1775C15.1522 22.0903 15.6228 22.0032 15.7187 21.9858C15.8843 21.9422 15.8843 21.9509 15.71 22.0991C15.4747 22.2908 15.2742 22.683 15.0128 23.4499L14.8124 24.0425H15.2742C15.8059 24.0425 15.7971 24.0338 16.2242 25.1841C16.6338 26.2648 16.9039 26.6483 17.7144 27.2496L17.9584 27.4413L17.758 27.511C17.6447 27.5546 16.8865 27.7551 16.076 27.9642L14.5945 28.339L14.1587 28.1124C13.9147 27.9816 13.4267 27.6418 13.0781 27.3455L12.4506 26.8226L12.6772 26.5175C12.8341 26.3258 12.9299 26.0644 12.9561 25.8029C12.9822 25.4456 12.9386 25.2974 12.6249 24.6961C12.4245 24.3126 12.224 23.9553 12.1717 23.9118C12.0323 23.7723 11.5181 24.4347 11.3961 24.9227C11.3351 25.158 11.2654 25.3497 11.2392 25.3497C11.1346 25.341 10.0278 23.8072 9.80997 23.3889C9.54852 22.866 9.32193 22.6481 8.74675 22.3605C8.19771 22.0903 7.06476 21.7243 6.99504 21.794C6.89918 21.8986 7.32621 22.9967 7.59637 23.3627C7.75324 23.5632 8.02341 23.842 8.20642 23.9902C8.51144 24.2342 8.59859 24.2604 9.12149 24.2516C9.44394 24.2516 9.7664 24.2342 9.85355 24.2081C9.94941 24.1819 10.1847 24.4347 10.6466 25.0534C11.0039 25.5415 11.3264 26.0208 11.3525 26.1166C11.4048 26.2735 12.8602 27.6592 13.4528 28.1211C13.7056 28.3128 13.7056 28.3215 13.4964 28.2605C13.1827 28.1734 12.4332 27.7899 11.6227 27.2932C11.2305 27.0579 10.603 26.7354 10.2283 26.5698C9.2435 26.1515 8.61602 25.6809 7.5528 24.5741C7.0299 24.0338 6.59415 23.6503 6.56801 23.6939C6.50701 23.7898 7.03862 24.4695 7.77939 25.2364C8.02341 25.4892 8.17156 25.6983 8.11927 25.6983C8.06698 25.6983 7.57894 25.5415 7.0299 25.341L6.0364 24.9924L5.93182 24.6177C5.7488 23.9205 5.34792 23.6852 4.15397 23.5632C3.4742 23.4934 3.44806 23.537 3.69208 24.2081C4.02324 25.158 4.87731 25.6722 5.59194 25.341C5.75752 25.2626 5.99282 25.3323 7.05605 25.7419C8.49401 26.3171 8.75546 26.4391 8.65088 26.5001C8.60731 26.5262 8.35458 26.6134 8.09313 26.7005C7.83168 26.779 7.09091 27.1014 6.446 27.4065C5.80109 27.7115 5.24334 27.9642 5.19105 27.9642C5.14747 27.9642 4.97317 27.8422 4.80759 27.7028C4.63329 27.5459 4.42413 27.4413 4.27598 27.45C3.94481 27.45 2.83801 27.8161 2.80315 27.9294C2.74215 28.1124 3.34348 28.7921 3.73565 28.9926C4.38927 29.3237 5.03418 29.1146 5.2782 28.4871C5.40021 28.1908 5.48736 28.1211 6.29785 27.7638C7.11705 27.3977 8.05827 27.0056 8.12799 27.0056C8.14542 27.0056 8.10184 27.1712 8.03212 27.3629C7.97112 27.5633 7.88397 28.0339 7.85782 28.4087C7.79682 29.2104 7.83168 29.2366 8.53759 28.8793C9.35679 28.461 9.94941 27.6243 9.80997 27.084C9.78383 26.9881 9.79254 26.9184 9.81869 26.9184C9.92327 26.9271 10.9081 27.4936 11.797 28.0514C12.2763 28.3564 12.8776 28.6963 13.1217 28.7921L13.5835 28.9839L13.3831 29.1582C13.2785 29.2627 12.9212 29.4806 12.5813 29.6462C12.2502 29.8118 11.7011 30.1081 11.3699 30.2998L10.7773 30.6484L10.4636 30.4393C9.93198 30.0732 9.26093 30.204 8.7206 30.7704C8.52016 30.9883 8.35458 31.3195 8.15413 31.9557L7.86654 32.8446H8.12799C8.47658 32.8446 9.36551 32.4263 9.77511 32.069C9.94941 31.9121 10.1934 31.6158 10.3329 31.3979C10.542 31.058 10.725 30.9273 11.7273 30.4044C12.3547 30.0645 12.8951 29.7944 12.9212 29.7944C12.9474 29.7944 12.9735 29.9948 12.9735 30.2301C12.9735 30.753 13.2175 31.7988 13.3395 31.7988C13.3831 31.7988 13.6707 31.5548 13.967 31.2497C14.6468 30.5787 14.8211 30.0819 14.6032 29.5242L14.4638 29.1756L14.7426 29.0623C15.1958 28.8793 18.8299 28.0514 19.1785 28.0514C19.3006 28.0514 19.5271 28.0949 19.684 28.1559L19.9803 28.2518L19.4487 28.4C18.7864 28.583 18.3158 28.8619 17.5488 29.5416C17.2177 29.8292 16.7906 30.1778 16.6163 30.2911C16.2852 30.5177 16.198 30.6658 16.3985 30.6658C16.4943 30.6658 16.9562 30.3347 18.1589 29.4109C18.7167 28.9751 19.1698 28.7747 19.8147 28.6701C20.4248 28.5743 20.3638 28.5394 21.1917 29.4893C21.5316 29.8728 22.037 30.3957 22.3159 30.6484C22.865 31.1365 22.865 31.1452 22.1329 31.2236C21.8802 31.2497 20.9302 31.4589 20.0326 31.6855L18.3855 32.1038L17.8277 31.9469C17.2177 31.7901 16.7209 31.7552 16.7209 31.8685C16.7209 31.9992 17.1305 33.1496 17.2787 33.4459C17.3571 33.5941 17.5488 33.7945 17.6883 33.8817C17.9497 34.0472 17.9497 34.0472 16.7906 34.0037C15.2481 33.9427 14.6119 33.8032 14.1674 33.4023C13.5661 32.8533 13.2524 32.7574 11.9538 32.7574C10.6292 32.7574 10.6117 32.7661 11.0824 33.3849C11.8928 34.4481 13.2872 34.788 14.089 34.1083C14.3417 33.8991 14.3592 33.8904 14.7252 34.0298C14.9344 34.0995 15.5967 34.2041 16.198 34.2477C16.7994 34.3 17.636 34.3871 18.0543 34.4394L18.8212 34.544L17.7057 34.9972C17.0957 35.2412 16.3462 35.5462 16.0412 35.6769C15.4921 35.9035 14.4463 36.1911 13.8276 36.2783C13.5225 36.3131 13.4964 36.3044 13.4964 36.104C13.4964 35.5811 13.0519 34.9885 12.407 34.6486C12.1107 34.4917 11.9016 34.4656 11.0214 34.4656C10.3154 34.4569 9.97556 34.4917 9.94941 34.5614C9.89712 34.7009 10.7512 35.5375 11.4048 35.9907L11.9713 36.3741L10.9952 36.4003C10.0366 36.4264 10.0104 36.4177 9.42651 36.1301C9.10406 35.9645 8.51144 35.7205 8.11927 35.5898C7.41336 35.3632 7.40465 35.3458 7.52665 35.1715C7.7271 34.8839 7.69224 34.2303 7.46565 33.8904C7.18677 33.4895 6.92532 33.3152 6.14969 33.0276C5.37406 32.74 5.33049 32.7574 5.42635 33.3936C5.50479 33.8904 5.85338 34.6224 6.14098 34.8926C6.41986 35.154 6.41986 35.154 5.78366 34.9362C5.1649 34.727 5.19105 34.727 5.30434 34.9362C5.36535 35.0408 5.60937 35.1715 5.98411 35.2761C6.30656 35.3719 6.86432 35.5288 7.22163 35.6334C8.10184 35.8861 9.14764 36.3393 9.08663 36.4264C9.06049 36.47 8.91233 36.5049 8.75546 36.5049C8.59859 36.5049 7.75324 36.6269 6.87303 36.7663L5.2782 37.0278L5.15619 36.8535C5.00803 36.653 4.83373 36.7053 4.91217 36.9319C4.95574 37.0713 4.88602 37.0975 4.42413 37.1498C4.12782 37.1759 3.61364 37.2021 3.29119 37.2021H2.69857L2.8293 36.8883C3.07332 36.3131 2.79444 35.8512 1.88808 35.3283L1.46976 35.093L1.3739 35.3458C1.22575 35.6857 1.17346 36.6269 1.27804 36.8186C1.34775 36.9406 1.33032 37.0016 1.23446 37.08C1.00787 37.2369 1.17346 37.3502 1.79222 37.4635C2.42841 37.5855 3.56135 37.6204 4.60715 37.5507C5.47864 37.4897 5.46993 37.6291 4.56357 38.1258C3.5875 38.6575 2.69857 39.0235 2.15825 39.0932C1.67021 39.1629 1.45233 39.3808 1.86194 39.3808C2.17568 39.3808 3.02103 39.1542 3.51778 38.945C3.73565 38.8492 3.90995 38.7969 3.90995 38.823C3.90995 38.8492 3.83152 38.9886 3.72694 39.1281C3.63107 39.2675 3.52649 39.5115 3.50035 39.6771C3.44806 40.017 3.81409 41.6467 3.94481 41.6467C4.11911 41.6467 4.63329 41.1761 4.87731 40.7926C5.23462 40.2349 5.28691 39.7468 5.04289 39.2501C4.93831 39.0235 4.7553 38.8056 4.64201 38.7533C4.52871 38.701 4.43285 38.6313 4.43285 38.5965C4.43285 38.5529 4.89474 38.3001 5.49607 38.0038C5.52222 37.9864 5.72266 38.2217 5.9231 38.5267C7.16934 40.3743 9.19993 42.7796 10.664 44.1392C14.6642 47.843 18.8125 49.8997 23.7365 50.5969C24.9217 50.7712 28.3728 50.7887 29.7498 50.6405C35.0572 50.0479 39.5541 48.27 43.2144 45.3244C44.0946 44.6098 46.0032 42.7535 46.343 42.2654L46.5522 41.9691L44.7308 42.0214L42.9094 42.065L42.0814 42.8668C40.4953 44.4093 38.6477 45.7427 36.7566 46.7014C35.1792 47.5118 32.8174 48.3746 32.6693 48.209C32.556 48.087 31.7891 41.0628 31.7978 40.3394C31.8065 40.2697 32.0854 39.9908 32.434 39.7294C32.7739 39.4679 33.6628 38.6662 34.4036 37.9603C35.7718 36.6443 36.4951 36.0691 36.8002 36.0691C36.9396 36.0691 38.1248 36.4003 38.2381 36.47C38.2469 36.4874 38.2033 36.5833 38.1248 36.6966C37.9418 36.958 37.9505 37.4461 38.151 37.7772C38.3427 38.0823 38.7959 38.396 39.1794 38.4744C39.4321 38.5267 39.4321 38.518 39.5367 37.9603C39.5977 37.6552 39.6412 37.3154 39.6412 37.2108C39.6412 37.0365 39.6761 37.0452 40.321 37.3676C41.0182 37.7162 42.3865 38.1868 42.9965 38.2914C43.1882 38.3176 43.4322 38.3611 43.5455 38.3873C43.6676 38.4134 43.7373 38.3873 43.7373 38.3089C43.7373 38.2391 43.4845 38.1433 43.0662 38.0561C42.2209 37.8818 41.1925 37.4897 40.3384 37.0103L39.6848 36.6443L40.2949 36.5746C41.8636 36.3916 43.1272 35.7467 45.977 33.6638C46.5261 33.2629 47.0141 32.9492 47.049 32.9753C47.0838 33.0015 47.1448 33.1496 47.171 33.3065C47.3627 34.3174 48.9837 34.849 50.2909 34.3174L50.5175 34.2215L50.073 33.8207C49.0621 32.9056 48.7832 32.7226 48.1993 32.5744C47.7984 32.4786 47.6764 32.4176 47.7897 32.3827C48.1122 32.2781 50.5436 31.8859 50.8312 31.8859H51.1188L51.0317 32.2258C50.9184 32.6441 51.0491 33.1496 51.3541 33.5243C51.633 33.8381 52.3215 34.2128 52.7834 34.2913C53.2104 34.361 53.2104 34.3523 53.0187 33.5069C52.827 32.6964 52.7398 32.4873 52.4261 32.1648L52.1559 31.8859H52.6091C52.8618 31.8859 53.3673 31.9469 53.7246 32.0254C54.3782 32.1561 54.5264 32.1474 54.4218 31.9905C54.3608 31.8859 53.0623 31.6506 52.1472 31.5809C51.5284 31.5286 50.1166 31.6158 49.097 31.7552L48.7484 31.8075L49.1405 31.5896C49.6286 31.3195 50.6744 30.9622 51.3629 30.8401C52.2343 30.6833 53.7856 30.631 54.2214 30.7356C54.57 30.8314 54.6833 30.814 55.1713 30.6397C55.5112 30.509 55.7116 30.3957 55.6942 30.326C55.6768 30.2562 55.729 30.0732 55.8075 29.9164C56.0254 29.4458 56.0602 28.8531 55.9033 28.0949C55.8249 27.7202 55.7378 27.389 55.7203 27.3629C55.5547 27.206 54.3521 28.8706 54.1865 29.4719C53.9512 30.3434 54.0645 30.2737 52.8705 30.2911C51.755 30.3172 50.5785 30.4828 49.9423 30.7007C49.7419 30.7704 49.5763 30.8053 49.5763 30.7791C49.5763 30.7443 49.9162 30.265 50.3345 29.7159C51.7115 27.8858 53.4022 26.3955 54.0819 26.3955C54.2736 26.3955 54.4567 26.3084 54.6484 26.1428C54.9098 25.9075 54.936 25.8465 54.936 25.3759C54.936 24.9488 54.8924 24.792 54.6397 24.3911C54.4741 24.1296 54.3259 23.8943 54.3085 23.8769C54.2475 23.7985 53.6549 24.4434 53.4893 24.7571C53.2801 25.1754 53.2801 25.524 53.498 25.8988L53.6723 26.1951L53.132 26.5437C52.0078 27.2496 50.9968 28.278 49.463 30.265C48.8617 31.0406 48.7309 31.1626 48.0425 31.5461C47.6329 31.7814 47.232 32.0167 47.171 32.069C47.1012 32.13 47.0315 32.1561 47.0228 32.1387C46.9531 32.0515 46.6916 29.8118 46.7178 29.5765C46.7526 29.2627 46.5958 29.1756 46.5173 29.4632C46.4738 29.6375 46.4563 29.6201 46.3692 29.3063C46.3082 29.1059 46.1775 28.8357 46.0729 28.705C45.8811 28.461 44.6349 27.4413 44.5216 27.4413C44.3386 27.4413 44.2863 28.7224 44.4432 29.193C44.7046 29.9774 45.4803 30.509 46.1077 30.3434L46.4302 30.2562L46.4912 30.6571C46.5261 30.875 46.5609 31.363 46.5609 31.7465L46.5696 32.435L45.1752 33.3762C43.7808 34.3174 42.6305 34.9797 41.7328 35.3545C41.1576 35.5985 40.016 35.7554 39.4408 35.6769L39.0138 35.6159L39.3885 35.3893C40.016 35.0233 40.3994 34.6922 40.7393 34.2128C40.9223 33.9601 41.2099 33.6028 41.393 33.4111C41.5672 33.2193 41.7415 32.9666 41.7764 32.8446C41.8113 32.7226 41.9594 32.435 42.0989 32.2084C42.3952 31.7378 42.3516 31.5373 42.0291 31.9121L41.8287 32.1474L41.6544 31.8075C41.5585 31.6245 41.3581 31.3718 41.2012 31.241C40.8875 30.9709 40.4256 30.7181 40.3646 30.7791C40.3472 30.8053 40.2774 31.1539 40.2077 31.5635C40.0596 32.4698 40.1206 32.7487 40.565 33.2019L40.8875 33.5243L40.4779 34.0385C40.1729 34.4307 39.8765 34.6747 39.2316 35.0669L38.3776 35.5724L37.724 35.3371C37.3666 35.2151 36.9222 35.1105 36.7392 35.1105C36.1117 35.1105 35.2576 35.6682 33.7674 37.0452C32.8872 37.8644 31.7194 38.823 31.6845 38.762C31.6671 38.7446 31.5363 38.0736 31.3795 37.2718L31.0919 35.8077L31.4492 35.2848C31.8239 34.727 32.9656 33.2978 33.5146 32.6877C33.8894 32.2694 34.0985 32.2084 35.5278 32.1038L36.3383 32.0428L36.2686 32.2868C36.1814 32.6441 36.2163 33.0102 36.3731 33.2455C36.6259 33.6376 37.5322 33.9601 37.9331 33.8119L38.1336 33.7335L38.0116 33.0973C37.9505 32.7487 37.8372 32.374 37.7675 32.2607L37.6368 32.0602H38.8656C39.8068 32.0602 40.0857 32.0341 40.0508 31.9469C40.0247 31.8685 39.3798 31.8424 37.2185 31.8424C35.6759 31.8424 34.4123 31.8337 34.4123 31.8249C34.4123 31.8162 34.8916 31.5112 35.4842 31.1365C36.0681 30.7704 36.7915 30.2998 37.0965 30.0907C37.3928 29.8815 37.9244 29.5939 38.273 29.4458C38.6129 29.2976 39.3885 28.9141 39.9898 28.583L41.0792 27.9816L41.2187 28.5045C41.4975 29.5068 42.369 30.0732 43.6501 30.0732C44.0074 30.0732 44.3996 30.0384 44.5129 29.9948C44.7221 29.9076 44.7046 29.8815 43.9029 29.0884C43.0052 28.1821 42.6392 27.9642 41.9071 27.8858L41.4278 27.8335L42.1947 27.511C43.0052 27.1624 45.1752 26.4478 45.6633 26.3519C45.8986 26.3084 46.0206 26.3432 46.2559 26.5175C46.7614 26.8923 47.0402 26.9446 47.8159 26.7964C48.1906 26.7267 48.5915 26.6918 48.7048 26.718C48.8965 26.7703 48.9052 26.7528 48.8442 26.4827C48.7571 26.0469 48.3823 25.6199 47.8856 25.3846C47.0315 24.9837 46.3256 25.2103 45.8724 26.0208C45.8724 26.0295 45.2537 26.2125 44.4955 26.4304C42.6828 26.9533 41.3581 27.4849 39.7458 28.3302C39.0138 28.7137 38.395 29.01 38.3689 28.9926C38.3514 28.9664 38.4473 28.7398 38.5867 28.4784C38.7262 28.2169 39.0312 27.5459 39.2578 26.9707C39.4844 26.4042 39.7894 25.7768 39.9376 25.5763C40.2687 25.1493 41.0269 24.7222 41.8113 24.5218L42.3603 24.3824L42.9181 24.7484C43.2231 24.9488 43.4758 25.158 43.4758 25.219C43.4758 25.4456 43.929 25.8726 44.2689 25.9598C44.8179 26.1079 45.2537 25.9423 45.8637 25.341C46.3779 24.8443 46.3866 24.8181 46.221 24.6874C45.9683 24.4957 45.245 24.3039 44.7656 24.3039C44.4083 24.3039 44.295 24.3475 44.0074 24.609L43.6763 24.914L43.3015 24.6438C43.1011 24.4957 42.9704 24.3475 43.0052 24.3126C43.0488 24.2778 43.7111 24.1296 44.478 23.9728C45.245 23.8246 46.2036 23.6067 46.6132 23.4847C47.1187 23.3366 47.476 23.2843 47.7113 23.3191C48.208 23.3801 48.5566 23.1797 48.7397 22.7352C48.9314 22.2559 48.8094 21.794 48.3562 21.306C47.9727 20.8964 48.0599 20.8528 47.4411 21.7505C47.1448 22.1688 47.1274 22.2211 47.2145 22.5261C47.2668 22.7091 47.2755 22.8921 47.2407 22.9183C47.171 22.988 45.4105 23.3889 44.7831 23.476C44.5652 23.5109 44.3212 23.5544 44.234 23.5719C44.1207 23.6067 44.1643 23.4847 44.4258 23.0664C44.6088 22.7614 44.8702 22.2995 45.0097 22.038C45.2537 21.5849 45.2798 21.5587 45.6633 21.5152C46.3692 21.428 46.6481 21.123 47.0054 20.051C47.0838 19.7983 47.1274 19.563 47.0925 19.5281C46.9705 19.3974 46.1165 19.4846 45.7243 19.6676C45.1404 19.929 44.9399 20.2776 44.9835 20.9487C45.0271 21.4541 45.0097 21.4977 44.5652 22.2559C44.3125 22.683 43.9726 23.1797 43.807 23.354C43.5281 23.659 43.4758 23.6765 42.43 23.8508C41.8287 23.9553 41.2622 24.0599 41.1664 24.0948C41.0356 24.1471 41.0182 24.1296 41.0792 23.9902C41.3145 23.4412 41.1315 22.8311 40.5563 22.2995L40.321 22.0816L40.0596 22.3866C39.7197 22.7788 39.5541 23.171 39.5541 23.5719C39.5541 23.8159 39.6238 23.9553 39.8591 24.1906L40.1641 24.4957L39.6848 24.9314C39.3362 25.2451 39.1096 25.5589 38.883 26.0295L38.5606 26.7005L38.456 26.2212C38.3863 25.9598 38.2991 25.5066 38.2556 25.2277C38.1597 24.6612 37.9854 24.3649 37.9854 24.7745V25.0098L37.724 24.8268C37.3579 24.5654 36.6956 24.2865 36.591 24.3475C36.5387 24.3737 36.5039 24.6874 36.5039 25.0273C36.5126 26.1428 36.9919 26.779 37.7937 26.7267C38.1423 26.7005 38.1597 26.7093 38.1597 26.9271C38.1597 27.0579 38.0813 27.4326 37.9767 27.7551C37.7152 28.6004 37.1749 29.1059 35.5016 30.0558C34.787 30.4654 34.1683 30.8053 34.1334 30.8227C34.0985 30.8401 34.2205 30.509 34.3948 30.0819L34.7173 29.315L34.726 27.8771C34.726 27.084 34.7609 26.3345 34.7957 26.1951C34.848 26.0382 34.8306 25.9598 34.7696 25.9598C34.6389 25.9598 34.5169 26.2822 34.4471 26.8313L34.3861 27.2757L34.1595 27.0579C34.0375 26.9358 33.7848 26.779 33.6105 26.7093C33.2183 26.5437 32.6693 26.5262 32.6693 26.6744C32.678 27.0666 32.8697 28.0165 32.983 28.2344C33.2009 28.6614 34.2205 29.0274 34.36 28.7224C34.3861 28.6701 34.3948 28.7921 34.3774 29.0013C34.3513 29.2279 34.1421 29.7856 33.8632 30.3521C33.4798 31.1539 33.2793 31.4415 32.7216 32.0167C32.3468 32.4001 31.7716 33.0363 31.4318 33.4372C31.0919 33.8294 30.8043 34.1431 30.7869 34.1257C30.6823 34.0211 30.2988 30.9186 30.2291 29.5939C30.1768 28.7224 30.1245 27.9119 30.1071 27.7899C30.0635 27.5459 30.8653 25.8726 31.0309 25.8726C31.0832 25.8726 31.9547 25.4717 32.9656 24.9837C33.9765 24.5044 35.3099 23.8769 35.92 23.598C37.6368 22.8224 37.907 22.6219 38.9789 21.3931C39.5105 20.7918 39.9637 20.2951 39.9986 20.2951C40.0334 20.2951 40.0857 20.4345 40.1206 20.6175C40.2339 21.245 41.0008 21.6807 41.7764 21.5674C42.1424 21.5064 43.0401 21.1143 43.0401 21.001C43.0401 20.9661 42.7699 20.7308 42.43 20.4781C41.7851 19.9813 41.2187 19.7373 40.9136 19.8157C40.8178 19.8419 41.0705 19.6937 41.4888 19.4846C41.9071 19.2841 42.247 19.0662 42.2557 19.0052C42.2557 18.953 42.2383 18.9007 42.2122 18.9007C42.1337 18.9007 40.8352 19.4323 40.504 19.5979C40.321 19.6937 40.1641 19.7373 40.1641 19.6937C40.1641 19.6502 40.6609 19.1534 41.2622 18.5869L42.3516 17.5586L42.9006 17.5498C43.9464 17.5498 44.539 16.8614 44.7221 15.4147C44.7743 14.9877 44.7918 14.6129 44.7656 14.578C44.6523 14.4735 43.7721 15.0399 43.2057 15.589C42.7873 15.9986 42.5782 16.2775 42.4736 16.5912C42.3865 16.8265 42.2122 17.1402 42.0901 17.271C41.8548 17.5324 40.748 18.3778 40.6522 18.3778C40.6173 18.3778 40.6609 18.2558 40.7393 18.0989C40.9485 17.6893 40.9833 16.9572 40.8265 15.9812C40.748 15.5105 40.6609 15.1009 40.6348 15.0748C40.6173 15.0487 40.3646 15.2752 40.0857 15.5628L39.5715 16.1032L39.1532 15.9724C38.9179 15.9027 38.2294 15.711 37.6107 15.5541L36.5039 15.2665L37.8547 14.8831L39.1968 14.4996L41.5411 11.9723L43.8767 9.44494L45.3408 9.4798L46.8136 9.50595L46.6045 9.21835C46.2297 8.68674 44.1469 6.60387 43.2579 5.87181C39.3537 2.66471 34.7434 0.721279 29.6191 0.119946C28.2595 -0.045639 25.2354 -0.0369225 23.8672 0.128662ZM36.8525 15.6848C37.4102 15.772 39.3624 16.2426 39.4234 16.3036C39.4408 16.321 39.3972 16.5476 39.3275 16.8004C39.0922 17.5847 39.3275 18.3691 39.9114 18.7177L40.1729 18.8832L39.9201 19.1708C39.7807 19.3364 39.3362 19.9203 38.9266 20.4694C38.1771 21.489 37.7501 21.9248 37.2882 22.1688L37.0355 22.2995L37.2098 21.8899C37.5322 21.1317 37.7937 20.0772 37.8547 19.2667L37.9244 18.4649L37.5671 18.1425C36.5562 17.2012 36.591 17.2274 36.4429 17.3494C36.0943 17.637 35.9635 18.4126 36.1901 18.9268C36.3906 19.3974 36.7217 19.6327 37.1662 19.6414C37.4712 19.6414 37.5497 19.6763 37.5497 19.7896C37.5497 20.0772 37.1139 21.306 36.7915 21.9422L36.4603 22.5871L35.031 23.1361C34.2467 23.4412 33.227 23.8595 32.7826 24.0773C32.3294 24.2952 31.9721 24.4434 31.9895 24.3998C32.0069 24.3649 32.4514 23.8769 32.9743 23.3279L33.933 22.3256L34.1944 22.4912C34.9352 22.9357 35.8677 22.4476 36.1553 21.4541C36.3296 20.8877 36.2598 20.8092 35.6149 20.8702C35.3099 20.8964 34.9526 20.9312 34.8219 20.9487L34.5779 20.9923L34.8132 20.5565C34.9439 20.3125 35.0223 20.0946 34.9875 20.051C34.8916 19.9639 34.7347 20.2079 34.2118 21.2101C33.8371 21.916 33.6192 22.2123 32.9917 22.8398C32.5647 23.2581 32.1812 23.6067 32.1464 23.6067C32.1028 23.6067 31.9808 23.3714 31.8762 23.0838C31.7455 22.7178 31.4753 22.3169 30.9437 21.6894C30.4993 21.1578 30.1768 20.8354 30.1245 20.8877C30.0112 21.001 29.7934 21.855 29.7934 22.1775C29.7934 22.3256 29.8544 22.6394 29.9241 22.8834C30.1419 23.6242 31.0657 24.2952 31.5799 24.0948C31.7368 24.0338 31.7019 24.1122 31.3969 24.5392C31.2487 24.7397 31.057 24.853 30.7084 24.9488C30.3424 25.0621 30.1855 25.158 30.0199 25.402L29.8108 25.707L29.5406 25.2539C29.131 24.6002 28.9393 24.0599 28.8173 23.2146C28.7214 22.5609 28.7301 22.2995 28.8696 21.2276C28.9567 20.5478 29.0526 19.7373 29.0874 19.4323C29.1484 18.9007 29.1746 18.8484 29.5842 18.4736C30.4121 17.7154 30.6474 17.5934 31.4318 17.5324C32.129 17.4801 32.2684 17.5237 32.0505 17.7416C31.9024 17.8897 31.9198 18.4213 32.0941 18.6828C32.3555 19.075 33.288 19.3887 33.5931 19.1795C33.7151 19.0924 33.6105 17.82 33.4536 17.6457C33.3578 17.5237 33.4101 17.5063 33.8981 17.5063C34.909 17.5063 35.6324 17.4017 35.6324 17.271C35.6324 17.1751 35.5626 17.1577 35.3622 17.2012C35.2141 17.2361 34.3077 17.2361 33.3403 17.2012L31.5973 17.1315L31.8937 16.9747C32.3991 16.7045 33.4449 16.2775 34.543 15.8853C35.6411 15.4931 35.6149 15.4931 36.8525 15.6848ZM22.8214 19.5979C23.231 19.6502 23.7016 19.7373 23.8672 19.7896L24.1722 19.8855L23.6406 20.0336C22.9434 20.2253 22.3072 20.5826 20.9913 21.55C20.3899 21.9945 19.7973 22.4215 19.6666 22.4999C19.4226 22.6481 19.3441 22.8224 19.5097 22.8224C19.562 22.8224 20.2069 22.4128 20.9477 21.9073C21.6884 21.4019 22.3159 20.9923 22.3421 20.9923C22.3769 20.9923 22.3159 21.0881 22.2201 21.2101C22.1242 21.3321 21.9848 21.7156 21.9063 22.0555C21.8279 22.3954 21.7146 22.805 21.6449 22.9793C21.5752 23.1448 21.5141 23.293 21.5141 23.3104C21.5141 23.4237 22.2375 23.3104 22.6035 23.1361C23.6406 22.6568 24.0851 21.4803 23.5186 20.7134C23.3443 20.4781 23.3443 20.4606 23.4924 20.4083C23.5796 20.3735 23.8498 20.3473 24.0851 20.3386H24.5208L25.401 22.1165L26.2812 23.8943L26.3335 25.6896C26.3597 26.6744 26.4642 28.5917 26.5688 29.9512C26.6734 31.3108 26.7431 32.4437 26.717 32.4698C26.6821 32.496 26.473 32.374 26.2289 32.1997L25.8019 31.8859L26.0546 31.6332C26.3422 31.3369 26.3945 30.8314 26.1766 30.4131C26.0546 30.1778 25.3836 29.5329 25.2616 29.5329C25.1744 29.5329 24.7997 30.326 24.6951 30.7269L24.5992 31.0929L24.1896 30.8227C23.7452 30.5351 23.7103 30.4131 23.8323 29.498C23.8933 29.1146 23.902 29.0972 24.1896 29.0972C25.1047 29.0972 25.7932 28.1908 25.7758 27.0143C25.767 26.2822 25.7322 26.2648 25.0873 26.657C24.7735 26.84 24.4075 27.0927 24.2681 27.206L24.0066 27.4152L23.7626 26.6831C23.6319 26.2822 23.5186 25.8203 23.5186 25.6548C23.5186 25.2451 23.4053 24.9924 23.0828 24.6612C22.4641 24.0425 21.6884 23.9466 20.0849 24.2691L19.8409 24.3214L20.172 24.67C20.3638 24.8617 20.7995 25.2103 21.1568 25.4369C21.7669 25.8465 22.0632 25.9423 23.0044 26.0905C23.3094 26.1341 23.3269 26.1515 23.5186 26.7964C23.6755 27.3367 23.7016 27.5808 23.658 28.0862C23.5709 29.0362 23.4053 30.143 23.353 30.143C23.2397 30.143 22.4815 29.4545 21.6536 28.6004C20.5729 27.4762 20.1895 27.267 19.2308 27.267C18.4378 27.267 18.1589 27.1712 17.5314 26.6657C17.148 26.3607 17.0085 26.1689 16.6774 25.4543C16.4595 24.9924 16.2067 24.4608 16.1109 24.2778L15.9453 23.9553L16.2242 23.8333C16.5815 23.6852 17.0347 23.171 17.1131 22.8398C17.1392 22.6917 17.1131 22.4302 17.0347 22.2036C16.9649 21.9945 16.9127 21.8202 16.9214 21.8115C16.9301 21.8115 17.2177 21.733 17.5488 21.6546C18.3506 21.4541 19.3006 21.001 20.6427 20.1818C21.2353 19.807 21.8105 19.5107 21.9063 19.5107C22.0022 19.5107 22.4205 19.5543 22.8214 19.5979ZM24.8694 32.6354C26.7431 34.0037 26.8738 34.1431 26.9436 35.0408C26.9871 35.4939 26.9697 35.7205 26.9087 35.7205C26.8651 35.7205 26.1766 35.5026 25.3836 35.2412C22.7168 34.3436 22.4815 34.3 20.5729 34.2826C19.6491 34.2738 18.8735 34.2477 18.8561 34.2215C18.8387 34.2041 18.8822 34.0211 18.952 33.8119C19.1001 33.3849 19.013 32.9317 18.7167 32.5483C18.5859 32.3827 18.5685 32.313 18.6556 32.2868C18.9084 32.2084 21.5664 31.6245 21.6536 31.6245C21.732 31.6245 21.7233 31.7116 21.6449 31.9469C21.5839 32.13 21.5141 32.4873 21.4793 32.7313L21.4183 33.1932H21.854C22.3856 33.1932 22.6994 33.0799 23.0131 32.7836C23.292 32.5134 23.3966 32.1125 23.2659 31.7726C23.2048 31.6071 23.2048 31.5373 23.2659 31.5373C23.3181 31.5373 24.0415 32.0341 24.8694 32.6354ZM22.4292 35.4591C22.9957 35.5985 23.475 35.7292 23.4924 35.7554C23.5796 35.8338 22.1068 37.4286 21.5926 37.8208C20.7734 38.4396 19.7886 38.9973 19.0914 39.2326C18.7428 39.3459 18.4639 39.4767 18.4813 39.5202C18.5424 39.6945 19.5359 39.3895 20.3202 38.9712L20.7908 38.7185L20.5206 39.2239L20.2592 39.7381L20.4073 40.505C20.4858 40.9233 20.5555 41.3765 20.5555 41.4985C20.5555 42.2567 21.8627 41.0018 22.0022 40.1129C22.0806 39.5464 21.9237 39.0932 21.5229 38.7533L21.183 38.4744L21.7669 38.0648C22.0806 37.847 22.6645 37.3066 23.0654 36.8709C23.4576 36.4351 23.8585 36.0604 23.9456 36.0255C24.0328 35.9994 24.5644 36.1475 25.1396 36.3567C25.7148 36.5659 26.3858 36.8099 26.6385 36.897L27.1004 37.0452L27.083 37.7947C27.0743 38.9973 26.1941 46.0739 25.7322 48.7232C25.6625 49.1067 25.7583 49.0892 24.2768 48.9585C22.8475 48.8365 20.9564 48.5053 19.4226 48.1306C18.0282 47.782 17.2177 47.4073 15.3178 46.2133C12.6946 44.5749 10.42 42.7535 8.34586 40.6357C7.28264 39.5377 5.91439 37.9603 5.91439 37.8208C5.91439 37.6901 6.89918 37.2718 7.43079 37.1846C7.71838 37.1411 9.45266 37.0626 11.2741 37.0278C13.0955 36.9842 14.6991 36.9232 14.8385 36.8883L15.0912 36.8273L14.7165 37.3676C14.2023 38.0997 13.1565 39.0758 12.5813 39.3547C12.1194 39.5812 11.98 39.7294 12.224 39.7294C12.4419 39.7294 12.9474 39.4767 13.3482 39.1716L13.7404 38.8666L13.6968 39.3198C13.6445 39.8863 13.845 40.2784 14.577 41.0454L15.0999 41.577L15.2568 41.3852C15.588 40.9756 15.6751 40.2523 15.4573 39.6335C15.2742 39.1193 14.9256 38.7795 14.4812 38.6662L14.1064 38.579L14.4812 38.1694C14.6903 37.9515 15.0215 37.5245 15.2307 37.2282C15.6054 36.7053 15.6316 36.6879 16.4508 36.3916C16.9127 36.226 17.6796 35.9384 18.1589 35.7641C19.9193 35.1192 20.8257 35.0495 22.4292 35.4591Z" fill="#34345A"/>
<path d="M26.0731 56.6193C26.0208 56.6541 25.6112 57.4995 25.1667 58.5104C24.6961 59.5911 24.2604 60.4538 24.1035 60.6194C23.9641 60.7676 23.8769 60.9332 23.9031 60.9855C23.9379 61.0377 24.2342 61.0813 24.5741 61.0813C25.2626 61.0813 25.4282 60.9419 25.1057 60.6281C24.9227 60.4451 24.9227 60.4451 25.097 60.1052L25.2626 59.7741H25.9075H26.5437L26.7006 60.1227C26.8574 60.4713 26.8574 60.48 26.6657 60.6804C26.5524 60.8024 26.4914 60.9332 26.5263 60.9855C26.6047 61.1162 28.3738 61.1162 28.4523 60.9855C28.4784 60.9332 28.3913 60.7676 28.2431 60.6194C28.0862 60.4451 27.6679 59.6259 27.1712 58.493C26.718 57.4733 26.3084 56.6193 26.2561 56.6018C26.2038 56.5844 26.1167 56.5931 26.0731 56.6193ZM26.3084 59.2599C26.3084 59.3035 26.1167 59.3383 25.8726 59.3383H25.4369L25.6548 58.8503C25.7768 58.5801 25.8726 58.3361 25.8814 58.3012C25.8814 58.2228 26.3084 59.1727 26.3084 59.2599Z" fill="#34345A"/>
<path d="M36.3563 56.6193C36.304 56.6541 35.8944 57.4995 35.4499 58.5104C34.9793 59.5911 34.5436 60.4538 34.3867 60.6194C34.2473 60.7676 34.1601 60.9332 34.1863 60.9855C34.2211 61.0377 34.5174 61.0813 34.8573 61.0813C35.5458 61.0813 35.7114 60.9419 35.3889 60.6281C35.2059 60.4451 35.2059 60.4451 35.3802 60.1052L35.5458 59.7741H36.1907H36.8269L36.9838 60.1227C37.1406 60.4713 37.1406 60.48 36.9489 60.6804C36.8356 60.8024 36.7746 60.9332 36.8095 60.9855C36.8879 61.1162 38.657 61.1162 38.7355 60.9855C38.7616 60.9332 38.6745 60.7676 38.5263 60.6194C38.3694 60.4451 37.9511 59.6259 37.4544 58.493C37.0012 57.4733 36.5916 56.6193 36.5393 56.6018C36.487 56.5844 36.3999 56.5931 36.3563 56.6193ZM36.5916 59.2599C36.5916 59.3035 36.3999 59.3383 36.1558 59.3383H35.7201L35.938 58.8503C36.06 58.5801 36.1558 58.3361 36.1646 58.3012C36.1646 58.2228 36.5916 59.1727 36.5916 59.2599Z" fill="#34345A"/>
<path d="M5.95642 56.6966C5.20693 56.8621 4.72761 57.2282 4.44873 57.8469C4.01298 58.7969 4.20471 59.9211 4.91062 60.5398C5.51195 61.0715 6.20915 61.2109 6.97606 60.9495C8.65805 60.3743 8.8062 57.6726 7.20265 56.9144C6.80177 56.7227 6.24401 56.6268 5.95642 56.6966ZM6.54032 57.4199C6.90635 57.6988 7.15908 58.4134 7.20265 59.2675C7.23751 59.9821 7.2288 60.0344 7.01964 60.2435C6.86277 60.4004 6.69719 60.4701 6.49674 60.4701C5.80826 60.4701 5.35508 59.6684 5.34637 58.4395C5.34637 57.6988 5.35508 57.6552 5.59039 57.4548C5.8867 57.202 6.25272 57.1846 6.54032 57.4199Z" fill="#34345A"/>
<path d="M53.6283 56.6966C52.8788 56.8621 52.3995 57.2282 52.1206 57.8469C51.6849 58.7969 51.8766 59.9211 52.5825 60.5398C53.1838 61.0715 53.881 61.2109 54.6479 60.9495C56.3299 60.3743 56.4781 57.6726 54.8745 56.9144C54.4736 56.7227 53.9159 56.6268 53.6283 56.6966ZM54.2122 57.4199C54.5782 57.6988 54.831 58.4134 54.8745 59.2675C54.9094 59.9821 54.9007 60.0344 54.6915 60.2435C54.5346 60.4004 54.3691 60.4701 54.1686 60.4701C53.4801 60.4701 53.027 59.6684 53.0182 58.4395C53.0182 57.6988 53.027 57.6552 53.2623 57.4548C53.5586 57.202 53.9246 57.1846 54.2122 57.4199Z" fill="#34345A"/>
<path d="M1.11229 56.9673C0.519672 57.281 0.188504 57.7342 0.0577796 58.4401C-0.020655 58.8584 -0.020655 59.0937 0.0664945 59.4685C0.441237 61.133 2.49797 61.6908 3.55247 60.4097C3.84007 60.0698 3.90979 59.6863 3.70063 59.6863C3.63091 59.6863 3.49147 59.7996 3.39561 59.9391C3.1603 60.2615 2.77684 60.4184 2.33238 60.3574C1.92278 60.3051 1.61776 60.0524 1.35631 59.5556C1.10357 59.0937 1.08614 57.9259 1.32145 57.5686C1.62647 57.1067 2.39339 57.3507 2.60255 57.9782C2.78556 58.536 3.28231 58.7538 3.64834 58.4227C3.9185 58.1787 3.87493 57.7429 3.54376 57.3682C2.94243 56.6884 1.95764 56.5228 1.11229 56.9673Z" fill="#34345A"/>
<path d="M8.74593 56.8107C8.71107 56.863 8.74593 56.9763 8.82437 57.0634C9.02481 57.29 9.03353 60.4187 8.82437 60.715C8.75465 60.8196 8.71979 60.9503 8.74593 60.9939C8.77208 61.0462 9.11196 61.081 9.49542 61.081C10.2449 61.081 10.4279 60.9677 10.149 60.654C10.0532 60.5494 10.0096 60.3403 10.0096 60.0265V59.5559L10.4018 60.1572C11.0118 61.0985 10.9944 61.081 11.7177 61.081C12.0925 61.081 12.3801 61.0375 12.4149 60.9852C12.4498 60.9242 12.3016 60.7411 12.0838 60.5494C11.7177 60.2444 11.0728 59.3729 11.1513 59.3032C11.1687 59.2858 11.3168 59.2073 11.465 59.1289C12.2668 58.728 12.2842 57.4556 11.5086 56.9676C11.221 56.7933 11.0554 56.7671 10.0009 56.741C9.16425 56.7148 8.78951 56.741 8.74593 56.8107ZM10.5238 57.2552C10.8637 57.3772 10.9682 57.5602 10.9682 58.0569C10.9682 58.545 10.7678 58.8064 10.3408 58.8761L10.0096 58.9284V58.0395C10.0096 57.0809 10.0096 57.0809 10.5238 57.2552Z" fill="#34345A"/>
<path d="M12.5025 56.863C12.4763 56.9327 12.4502 57.168 12.4502 57.3772C12.4502 58.118 12.6332 58.2226 12.9731 57.6909C13.1561 57.3772 13.4524 57.1593 13.6703 57.1593C13.7226 57.1593 13.7574 57.8304 13.7574 58.8413C13.7574 60.2183 13.7313 60.5582 13.618 60.715C13.5483 60.8196 13.5134 60.9503 13.5396 60.9939C13.5657 61.0462 13.9056 61.0811 14.289 61.0811C15.0385 61.0811 15.2215 60.9678 14.9427 60.654C14.8207 60.5233 14.8032 60.2444 14.8032 58.8326C14.8032 57.8478 14.8381 57.1593 14.8817 57.1593C15.1344 57.1593 15.422 57.3685 15.5963 57.6822C15.9013 58.2313 16.0669 58.1267 16.0669 57.3772V56.7672L14.3152 56.741C12.7726 56.7236 12.5548 56.741 12.5025 56.863Z" fill="#34345A"/>
<path d="M16.459 56.845C16.459 56.906 16.52 57.0106 16.5897 57.0716C16.7902 57.2372 16.7814 60.4356 16.581 60.6534C16.5026 60.7406 16.459 60.8713 16.4938 60.9497C16.5374 61.063 16.764 61.0805 18.2194 61.063L19.9014 61.0369L19.9275 60.6186C19.9624 60.0957 19.8578 60.0521 19.3001 60.3397C18.8295 60.575 18.0538 60.636 17.8708 60.453C17.8098 60.392 17.7662 60.1044 17.7662 59.7558V59.1632H18.2717C18.6987 59.1632 18.812 59.198 18.9863 59.3811C19.2739 59.6861 19.4221 59.5292 19.4221 58.9453C19.4221 58.1697 19.2739 58.0215 18.8992 58.4224C18.7336 58.6054 18.6116 58.6403 18.2281 58.6403H17.7662V57.8908V57.1326L18.3414 57.1849C18.7336 57.2198 19.0473 57.3156 19.3088 57.4725C19.7707 57.7426 19.8752 57.6729 19.8404 57.1152L19.8142 56.7666L18.141 56.7404C16.7466 56.723 16.459 56.7404 16.459 56.845Z" fill="#34345A"/>
<path d="M20.4247 56.9234C20.3898 57.0367 20.3811 57.3156 20.3985 57.5596C20.4334 58.0738 20.6077 58.1522 20.8517 57.7775C20.9476 57.6381 21.1306 57.4638 21.2613 57.3853C21.5402 57.2197 22.2548 57.1064 22.3158 57.211C22.342 57.2546 21.8975 58.0128 21.331 58.9017C20.7646 59.7906 20.3027 60.6011 20.2939 60.7057C20.2939 61.0369 20.5467 61.0892 22.0979 61.063L23.5621 61.0369L23.5882 60.4791C23.6318 59.6338 23.5795 59.5902 23.1263 60.0608C22.7254 60.4791 22.4291 60.5924 21.8452 60.5401L21.5228 60.514L22.5685 58.8669C23.135 57.9605 23.6056 57.15 23.6056 57.0716C23.6056 56.7578 23.4313 56.723 21.9324 56.723C20.477 56.723 20.4682 56.723 20.4247 56.9234Z" fill="#34345A"/>
<path d="M28.7471 56.8369C28.7471 56.8979 28.8081 57.0286 28.8778 57.1245C29.0695 57.3859 29.0695 60.4361 28.8691 60.654C28.6163 60.9416 28.7732 61.0811 29.3484 61.0811C29.9672 61.0811 30.0979 60.959 29.758 60.6889L29.5227 60.5059L29.5488 59.2945L29.575 58.0918L30.1676 59.3904C30.9171 61.0201 30.9955 61.1421 31.1437 60.9852C31.2047 60.9155 31.5446 60.2357 31.8932 59.4688L32.5381 58.0744L32.5642 59.3293C32.5816 60.349 32.5642 60.6104 32.4509 60.7325C32.2331 60.9678 32.4596 61.0811 33.1656 61.0811C33.8627 61.0811 34.037 60.959 33.7669 60.654C33.5664 60.4361 33.5664 57.3859 33.7582 57.1245C34.0109 56.7933 33.9325 56.7236 33.2788 56.7236C32.5642 56.7236 32.6688 56.6016 31.928 58.2051C31.6753 58.7542 31.4313 59.1899 31.3964 59.1638C31.3528 59.1463 31.0914 58.6322 30.8125 58.0308C30.5336 57.4295 30.2635 56.8892 30.2112 56.8282C30.0805 56.68 28.7471 56.68 28.7471 56.8369Z" fill="#34345A"/>
<path d="M38.996 56.8018C38.9698 56.8366 39.0047 56.9499 39.0744 57.0371C39.2574 57.2811 39.2661 60.5754 39.0831 60.7322C39.0134 60.7845 38.9786 60.8891 39.0047 60.9588C39.0744 61.1418 40.4078 61.1331 40.4862 60.9501C40.5124 60.8717 40.4688 60.7409 40.3904 60.6538C40.2771 60.5318 40.2509 60.3662 40.2684 60.0263L40.2945 59.5644L40.7738 60.3052L41.2532 61.0373L41.8981 61.0634C42.2554 61.0808 42.5778 61.0547 42.6301 61.0024C42.6824 60.9501 42.5691 60.7758 42.2902 60.4969C41.8806 60.096 41.3229 59.3553 41.3926 59.3117C41.41 59.303 41.5408 59.2333 41.6802 59.1635C42.0549 58.9718 42.2728 58.6232 42.3164 58.1439C42.3687 57.5687 42.1508 57.1765 41.6453 56.9151C41.3054 56.7495 41.1311 56.7234 40.1464 56.7234C39.5363 56.7234 39.0221 56.7582 38.996 56.8018ZM40.7651 57.255C41.1137 57.377 41.2096 57.56 41.2096 58.109C41.2096 58.4751 41.1747 58.5709 40.983 58.7191C40.8523 58.8237 40.6344 58.9021 40.5037 58.9021H40.2509V58.0306C40.2509 57.0807 40.2509 57.0807 40.7651 57.255Z" fill="#34345A"/>
<path d="M43.04 56.8366C43.04 56.8976 43.101 57.0284 43.1708 57.1242C43.3625 57.3857 43.3625 60.4359 43.162 60.6538C43.0836 60.7409 43.04 60.8717 43.0662 60.9501C43.1446 61.1331 44.478 61.1418 44.5477 60.9588C44.5739 60.8891 44.539 60.7845 44.4693 60.7322C44.2863 60.5754 44.295 57.2811 44.478 57.0371C44.5477 56.9499 44.5826 56.8366 44.5564 56.8018C44.5303 56.7582 44.1817 56.7234 43.7721 56.7234C43.2318 56.7234 43.04 56.7495 43.04 56.8366Z" fill="#34345A"/>
<path d="M44.957 56.8363C44.957 56.8973 45.018 57.028 45.0878 57.1239C45.2795 57.3853 45.2795 60.4356 45.079 60.6534C45.0006 60.7406 44.957 60.8713 44.9919 60.9497C45.0355 61.063 45.2533 61.0805 46.5867 61.063L48.138 61.0369L48.1641 60.6186C48.199 60.0957 48.0596 60.0347 47.6064 60.3397C47.3275 60.5314 47.1968 60.5576 46.7872 60.5401L46.3078 60.514L46.2817 58.8756C46.2643 57.5335 46.2817 57.211 46.395 57.0455C46.4647 56.9322 46.4996 56.8101 46.4647 56.784C46.4386 56.7491 46.0813 56.723 45.6804 56.723C45.14 56.723 44.957 56.7491 44.957 56.8363Z" fill="#34345A"/>
<path d="M48.575 56.8186C48.5402 56.8622 48.575 56.9755 48.6535 57.0626C48.8626 57.2892 48.8626 60.4266 48.6535 60.7229C48.5663 60.8449 48.5402 60.9495 48.5925 61.0018C48.636 61.0454 49.3245 61.0715 50.196 61.0628L51.7124 61.0366L51.7386 60.5747C51.7734 60.0518 51.7124 60.0257 51.2505 60.3394C50.9019 60.5835 50.135 60.6445 49.9433 60.4527C49.7777 60.2872 49.7951 57.3328 49.9694 57.1062C50.2222 56.775 50.1437 56.7227 49.3681 56.7227C48.9411 56.7227 48.6012 56.7576 48.575 56.8186Z" fill="#34345A"/>
</svg>
